<svg width="54" height="44" viewBox="0 0 54 44" fill="none" xmlns="http://www.w3.org/2000/svg">
<path d="M32.3333 32.667H37.6667V27.3337H43V22.0003H37.6667V16.667H32.3333V22.0003H27V27.3337H32.3333V32.667ZM5.66667 43.3337C4.2 43.3337 2.944 42.811 1.89867 41.7657C0.853332 40.7203 0.331555 39.4652 0.333333 38.0003V6.00033C0.333333 4.53366 0.856 3.27766 1.90133 2.23233C2.94667 1.187 4.20178 0.665219 5.66667 0.666997H21.6667L27 6.00033H48.3333C49.8 6.00033 51.056 6.523 52.1013 7.56833C53.1467 8.61366 53.6684 9.86878 53.6667 11.3337V38.0003C53.6667 39.467 53.144 40.723 52.0987 41.7683C51.0533 42.8137 49.7982 43.3354 48.3333 43.3337H5.66667ZM5.66667 6.00033V38.0003H48.3333V11.3337H24.8L19.4667 6.00033H5.66667Z" fill="#2196F3"/>
</svg>
