<svg width="16" height="17" viewBox="0 0 16 17" fill="none" xmlns="http://www.w3.org/2000/svg">
<path d="M7.99939 0.5C6.61001 0.500243 5.24464 0.862292 4.03769 1.55051C2.83073 2.23872 1.8238 3.22938 1.11601 4.42496C0.408218 5.62054 0.0239689 6.97983 0.0010855 8.36902C-0.00858369 8.95601 0.0464069 9.53979 0.163538 10.1102C0.471867 11.6116 0.749048 13.1743 0.3275 14.648C0.267042 14.859 0.264162 15.0824 0.319161 15.295C0.37416 15.5075 0.485033 15.7015 0.640276 15.8567C0.795519 16.012 0.989477 16.1228 1.20202 16.1778C1.41457 16.2328 1.63796 16.2299 1.84902 16.1695C3.32316 15.7491 4.88573 16.0272 6.38722 16.336C6.79462 16.4198 7.2091 16.4719 7.62702 16.4914C8.84545 16.548 10.0607 16.3254 11.1799 15.8403C12.2991 15.3553 13.2925 14.6208 14.0843 13.693C14.8761 12.7651 15.4452 11.6685 15.7481 10.487C16.0511 9.30542 16.0798 8.07026 15.8322 6.87591C15.5846 5.68155 15.0671 4.55964 14.3194 3.59594C13.5717 2.63224 12.6135 1.85228 11.5181 1.31569C10.4227 0.779099 9.21915 0.500092 7.99939 0.5ZM4.30729 9.4218C4.12474 9.4218 3.94628 9.36767 3.79449 9.26625C3.64271 9.16483 3.5244 9.02067 3.45454 8.85201C3.38468 8.68336 3.3664 8.49777 3.40202 8.31873C3.43763 8.13968 3.52554 7.97521 3.65462 7.84613C3.78371 7.71705 3.94817 7.62914 4.12722 7.59352C4.30627 7.55791 4.49185 7.57619 4.66051 7.64605C4.82917 7.71591 4.97332 7.83421 5.07474 7.986C5.17616 8.13779 5.2303 8.31624 5.2303 8.4988C5.2303 8.74359 5.13305 8.97836 4.95995 9.15146C4.78686 9.32456 4.55209 9.4218 4.30729 9.4218ZM7.99932 9.4218C7.81676 9.4218 7.63831 9.36767 7.48652 9.26625C7.33474 9.16483 7.21643 9.02067 7.14657 8.85201C7.07671 8.68336 7.05843 8.49777 7.09405 8.31873C7.12966 8.13968 7.21757 7.97521 7.34665 7.84613C7.47574 7.71705 7.6402 7.62914 7.81925 7.59352C7.99829 7.55791 8.18388 7.57619 8.35254 7.64605C8.5212 7.71591 8.66535 7.83421 8.76677 7.986C8.86819 8.13779 8.92233 8.31624 8.92233 8.4988C8.92233 8.74359 8.82508 8.97836 8.65198 9.15146C8.47889 9.32456 8.24411 9.4218 7.99932 9.4218ZM11.6913 9.4218C11.5088 9.4218 11.3303 9.36767 11.1786 9.26625C11.0268 9.16483 10.9085 9.02067 10.8386 8.85201C10.7687 8.68336 10.7505 8.49777 10.7861 8.31873C10.8217 8.13968 10.9096 7.97521 11.0387 7.84613C11.1678 7.71705 11.3322 7.62914 11.5113 7.59352C11.6903 7.55791 11.8759 7.57619 12.0446 7.64605C12.2132 7.71591 12.3574 7.83421 12.4588 7.986C12.5602 8.13779 12.6144 8.31624 12.6144 8.4988C12.6144 8.74359 12.5171 8.97836 12.344 9.15146C12.1709 9.32456 11.9361 9.4218 11.6913 9.4218Z" fill="white"/>
</svg>
