<svg width="18" height="13" viewBox="0 0 18 13" fill="none" xmlns="http://www.w3.org/2000/svg">
<path d="M10.5 4.08125C10.5 3.96875 10.5408 3.853 10.6222 3.734C10.7037 3.615 10.794 3.537 10.893 3.5C11.2555 3.375 11.618 3.28125 11.9805 3.21875C12.343 3.15625 12.7245 3.125 13.125 3.125C13.375 3.125 13.622 3.14075 13.866 3.17225C14.11 3.20375 14.3505 3.24425 14.5875 3.29375C14.7 3.31875 14.797 3.38125 14.8785 3.48125C14.96 3.58125 15.0005 3.69375 15 3.81875C15 4.03125 14.9313 4.1875 14.7938 4.2875C14.6562 4.3875 14.4812 4.4125 14.2687 4.3625C14.0938 4.325 13.9095 4.29675 13.716 4.27775C13.5225 4.25875 13.3255 4.2495 13.125 4.25C12.8 4.25 12.4812 4.28125 12.1688 4.34375C11.8563 4.40625 11.5562 4.4875 11.2687 4.5875C11.0437 4.675 10.8595 4.66875 10.716 4.56875C10.5725 4.46875 10.5005 4.30625 10.5 4.08125ZM10.5 8.20625C10.5 8.09375 10.5408 7.978 10.6222 7.859C10.7037 7.74 10.7942 7.662 10.8937 7.625C11.2562 7.5 11.6188 7.40625 11.9813 7.34375C12.3438 7.28125 12.725 7.25 13.125 7.25C13.375 7.25 13.622 7.26575 13.866 7.29725C14.11 7.32875 14.3505 7.36925 14.5875 7.41875C14.7 7.44375 14.797 7.50625 14.8785 7.60625C14.96 7.70625 15.0005 7.81875 15 7.94375C15 8.15625 14.9313 8.3125 14.7938 8.4125C14.6562 8.5125 14.4812 8.5375 14.2687 8.4875C14.0938 8.45 13.9095 8.42175 13.716 8.40275C13.5225 8.38375 13.3255 8.3745 13.125 8.375C12.8 8.375 12.4812 8.40325 12.1688 8.45975C11.8563 8.51625 11.5562 8.59425 11.2687 8.69375C11.0437 8.78125 10.8593 8.778 10.7153 8.684C10.5712 8.59 10.4995 8.431 10.5 8.207V8.20625ZM10.5 6.14375C10.5 6.03125 10.5408 5.9155 10.6222 5.7965C10.7037 5.6775 10.7942 5.5995 10.8937 5.5625C11.2562 5.4375 11.6188 5.34375 11.9813 5.28125C12.3438 5.21875 12.725 5.1875 13.125 5.1875C13.375 5.1875 13.622 5.20325 13.866 5.23475C14.11 5.26625 14.3505 5.30675 14.5875 5.35625C14.7 5.38125 14.797 5.44375 14.8785 5.54375C14.96 5.64375 15.0005 5.75625 15 5.88125C15 6.09375 14.9313 6.25 14.7938 6.35C14.6562 6.45 14.4812 6.475 14.2687 6.425C14.0938 6.3875 13.9095 6.35925 13.716 6.34025C13.5225 6.32125 13.3255 6.312 13.125 6.3125C12.8 6.3125 12.4812 6.34375 12.1688 6.40625C11.8563 6.46875 11.5562 6.55 11.2687 6.65C11.0437 6.7375 10.8595 6.73125 10.716 6.63125C10.5725 6.53125 10.5005 6.36875 10.5 6.14375ZM9.75 10.2875C10.3 10.025 10.853 9.828 11.409 9.6965C11.965 9.565 12.537 9.4995 13.125 9.5C13.575 9.5 14.0157 9.5375 14.4473 9.6125C14.8788 9.6875 15.313 9.8 15.75 9.95V2.525C15.3375 2.35 14.9093 2.21875 14.4653 2.13125C14.0213 2.04375 13.5745 2 13.125 2C12.5375 2 11.9563 2.075 11.3813 2.225C10.8063 2.375 10.2625 2.6 9.75 2.9V10.2875ZM9 12.1062C8.825 12.1062 8.65925 12.0842 8.50275 12.0402C8.34625 11.9962 8.1995 11.937 8.0625 11.8625C7.575 11.575 7.0625 11.3595 6.525 11.216C5.9875 11.0725 5.4375 11.0005 4.875 11C4.35 11 3.83425 11.0687 3.32775 11.2062C2.82125 11.3437 2.337 11.5375 1.875 11.7875C1.6125 11.925 1.3595 11.9187 1.116 11.7687C0.8725 11.6187 0.7505 11.4 0.75 11.1125V2.075C0.75 1.9375 0.7845 1.80625 0.8535 1.68125C0.9225 1.55625 1.0255 1.4625 1.1625 1.4C1.7375 1.1 2.3375 0.875 2.9625 0.725C3.5875 0.575 4.225 0.5 4.875 0.5C5.6 0.5 6.3095 0.59375 7.0035 0.78125C7.6975 0.96875 8.363 1.25 9 1.625C9.6375 1.25 10.3033 0.96875 10.9972 0.78125C11.6912 0.59375 12.4005 0.5 13.125 0.5C13.775 0.5 14.4125 0.575 15.0375 0.725C15.6625 0.875 16.2625 1.1 16.8375 1.4C16.975 1.4625 17.0783 1.55625 17.1473 1.68125C17.2163 1.80625 17.2505 1.9375 17.25 2.075V11.1125C17.25 11.4 17.1283 11.6187 16.8848 11.7687C16.6413 11.9187 16.388 11.925 16.125 11.7875C15.6625 11.5375 15.1782 11.3437 14.6722 11.2062C14.1663 11.0687 13.6505 11 13.125 11C12.5625 11 12.0125 11.072 11.475 11.216C10.9375 11.36 10.425 11.5755 9.9375 11.8625C9.8 11.9375 9.653 11.997 9.4965 12.041C9.34 12.085 9.1745 12.1067 9 12.1062Z" fill="white"/>
</svg>
