<svg width="12" height="14" viewBox="0 0 12 14" fill="none" xmlns="http://www.w3.org/2000/svg">
<path d="M9.42 2.58L8.3325 3.6675C8.99338 4.06543 9.54022 4.62738 9.91998 5.29886C10.2997 5.97035 10.4995 6.72857 10.5 7.5C10.5 8.69347 10.0259 9.83807 9.18198 10.682C8.33807 11.5259 7.19348 12 6 12C4.80653 12 3.66194 11.5259 2.81802 10.682C1.97411 9.83807 1.5 8.69347 1.5 7.5C1.5 5.8725 2.37 4.455 3.66 3.66L2.58 2.58C1.78342 3.12959 1.13238 3.86458 0.682934 4.72166C0.233489 5.57874 -0.000882762 6.53223 2.49853e-06 7.5C2.49853e-06 9.0913 0.632144 10.6174 1.75736 11.7426C2.88258 12.8679 4.4087 13.5 6 13.5C7.5913 13.5 9.11742 12.8679 10.2426 11.7426C11.3679 10.6174 12 9.0913 12 7.5C12 5.46 10.98 3.66 9.42 2.58ZM6.75 0.75H5.25V8.25H6.75" fill="white"/>
</svg>
