<svg width="18" height="12" viewBox="0 0 18 12" fill="none" xmlns="http://www.w3.org/2000/svg">
<path d="M9 0.625C9.69619 0.625 10.3639 0.901562 10.8562 1.39384C11.3484 1.88613 11.625 2.55381 11.625 3.25C11.625 3.94619 11.3484 4.61387 10.8562 5.10616C10.3639 5.59844 9.69619 5.875 9 5.875C8.30381 5.875 7.63613 5.59844 7.14384 5.10616C6.65156 4.61387 6.375 3.94619 6.375 3.25C6.375 2.55381 6.65156 1.88613 7.14384 1.39384C7.63613 0.901562 8.30381 0.625 9 0.625ZM3.75 2.5C4.17 2.5 4.56 2.6125 4.8975 2.815C4.785 3.8875 5.1 4.9525 5.745 5.785C5.37 6.505 4.62 7 3.75 7C3.15326 7 2.58097 6.76295 2.15901 6.34099C1.73705 5.91903 1.5 5.34674 1.5 4.75C1.5 4.15326 1.73705 3.58097 2.15901 3.15901C2.58097 2.73705 3.15326 2.5 3.75 2.5ZM14.25 2.5C14.8467 2.5 15.419 2.73705 15.841 3.15901C16.2629 3.58097 16.5 4.15326 16.5 4.75C16.5 5.34674 16.2629 5.91903 15.841 6.34099C15.419 6.76295 14.8467 7 14.25 7C13.38 7 12.63 6.505 12.255 5.785C12.9 4.9525 13.215 3.8875 13.1025 2.815C13.44 2.6125 13.83 2.5 14.25 2.5ZM4.125 10.1875C4.125 8.635 6.3075 7.375 9 7.375C11.6925 7.375 13.875 8.635 13.875 10.1875V11.5H4.125V10.1875ZM0 11.5V10.375C0 9.3325 1.4175 8.455 3.3375 8.2C2.895 8.71 2.625 9.415 2.625 10.1875V11.5H0ZM18 11.5H15.375V10.1875C15.375 9.415 15.105 8.71 14.6625 8.2C16.5825 8.455 18 9.3325 18 10.375V11.5Z" fill="white"/>
</svg>
