<svg width="8" height="8" viewBox="0 0 8 8" fill="none" xmlns="http://www.w3.org/2000/svg">
<path d="M2.93274 2.75C3.47024 2.75 3.97441 2.92083 4.37857 3.2125L6.50774 1.08333H4.59941V0.25H7.93274V3.58333H7.09941V1.67083L4.97024 3.79167C5.26191 4.20833 5.43274 4.70833 5.43274 5.25C5.43274 5.91304 5.16935 6.54893 4.70051 7.01777C4.23167 7.48661 3.59578 7.75 2.93274 7.75C2.2697 7.75 1.63381 7.48661 1.16497 7.01777C0.696131 6.54893 0.432739 5.91304 0.432739 5.25C0.432739 4.58696 0.696131 3.95107 1.16497 3.48223C1.63381 3.01339 2.2697 2.75 2.93274 2.75ZM2.93274 3.58333C2.49071 3.58333 2.06679 3.75893 1.75423 4.07149C1.44167 4.38405 1.26607 4.80797 1.26607 5.25C1.26607 5.69203 1.44167 6.11595 1.75423 6.42851C2.06679 6.74107 2.49071 6.91667 2.93274 6.91667C3.37477 6.91667 3.79869 6.74107 4.11125 6.42851C4.42381 6.11595 4.59941 5.69203 4.59941 5.25C4.59941 4.80797 4.42381 4.38405 4.11125 4.07149C3.79869 3.75893 3.37477 3.58333 2.93274 3.58333Z" fill="#2196F3"/>
</svg>
