<svg width="6" height="9" viewBox="0 0 6 9" fill="none" xmlns="http://www.w3.org/2000/svg">
<path d="M3.18274 0.666992C3.84578 0.666992 4.48167 0.930384 4.95051 1.39923C5.41935 1.86807 5.68274 2.50395 5.68274 3.16699C5.68274 4.40449 4.78274 5.43366 3.59941 5.63366V6.50033H4.43274V7.33366H3.59941V8.16699H2.76607V7.33366H1.93274V6.50033H2.76607V5.63366C1.58274 5.43366 0.682739 4.40449 0.682739 3.16699C0.682739 2.50395 0.946131 1.86807 1.41497 1.39923C1.88381 0.930384 2.5197 0.666992 3.18274 0.666992ZM3.18274 1.50033C2.74071 1.50033 2.31679 1.67592 2.00423 1.98848C1.69167 2.30104 1.51607 2.72496 1.51607 3.16699C1.51607 3.60902 1.69167 4.03294 2.00423 4.3455C2.31679 4.65806 2.74071 4.83366 3.18274 4.83366C3.62477 4.83366 4.04869 4.65806 4.36125 4.3455C4.67381 4.03294 4.84941 3.60902 4.84941 3.16699C4.84941 2.72496 4.67381 2.30104 4.36125 1.98848C4.04869 1.67592 3.62477 1.50033 3.18274 1.50033Z" fill="#4161FF"/>
</svg>
