<svg width="310" height="310" viewBox="0 0 310 310" fill="none" xmlns="http://www.w3.org/2000/svg">
<g filter="url(#filter0_d_1_19)">
<rect x="15" y="11" width="280" height="280" rx="24" fill="white"/>
</g>
<path d="M67.104 226.576C65.28 226.576 63.504 226.4 61.776 226.048C60.08 225.728 58.528 225.28 57.12 224.704C55.744 224.128 54.576 223.504 53.616 222.832L56.784 216.832C57.84 217.568 58.96 218.208 60.144 218.752C61.36 219.264 62.624 219.664 63.936 219.952C65.248 220.208 66.56 220.336 67.872 220.336C69.312 220.336 70.544 220.176 71.568 219.856C72.624 219.536 73.424 219.088 73.968 218.512C74.544 217.936 74.832 217.232 74.832 216.4C74.832 215.632 74.528 215.008 73.92 214.528C73.312 214.048 72.512 213.648 71.52 213.328C70.56 212.976 69.488 212.64 68.304 212.32C67.12 212 65.92 211.632 64.704 211.216C63.52 210.768 62.432 210.224 61.44 209.584C60.48 208.912 59.696 208.064 59.088 207.04C58.48 206.016 58.176 204.736 58.176 203.2C58.176 200.896 58.8 198.896 60.048 197.2C61.328 195.504 63.12 194.192 65.424 193.264C67.728 192.304 70.432 191.824 73.536 191.824C75.808 191.824 77.952 192.08 79.968 192.592C81.984 193.072 83.712 193.776 85.152 194.704L82.224 200.656C80.944 199.792 79.52 199.152 77.952 198.736C76.384 198.288 74.768 198.064 73.104 198.064C71.6 198.064 70.304 198.24 69.216 198.592C68.16 198.944 67.344 199.44 66.768 200.08C66.224 200.688 65.952 201.392 65.952 202.192C65.952 202.992 66.24 203.648 66.816 204.16C67.424 204.64 68.224 205.056 69.216 205.408C70.208 205.728 71.296 206.048 72.48 206.368C73.664 206.688 74.848 207.056 76.032 207.472C77.216 207.888 78.304 208.416 79.296 209.056C80.288 209.696 81.088 210.512 81.696 211.504C82.304 212.464 82.608 213.68 82.608 215.152C82.608 217.456 81.968 219.472 80.688 221.2C79.408 222.896 77.6 224.224 75.264 225.184C72.96 226.112 70.24 226.576 67.104 226.576ZM96.0334 226.384C94.1774 226.384 92.5934 226.016 91.2814 225.28C89.9694 224.512 89.0254 223.424 88.4494 222.016C87.9054 220.576 87.8254 218.88 88.2094 216.928L92.6734 194.464H100.161L95.6974 216.88C95.5054 217.968 95.6174 218.832 96.0334 219.472C96.4494 220.112 97.2174 220.432 98.3374 220.432C98.8494 220.432 99.3614 220.352 99.8734 220.192C100.417 220.032 100.913 219.808 101.361 219.52L102.465 224.848C101.537 225.424 100.513 225.824 99.3934 226.048C98.2734 226.272 97.1534 226.384 96.0334 226.384ZM86.2894 206.512L87.4414 200.752H105.345L104.193 206.512H86.2894ZM117.248 226.384C115.264 226.384 113.424 225.936 111.728 225.04C110.032 224.112 108.672 222.784 107.648 221.056C106.624 219.328 106.112 217.248 106.112 214.816C106.112 212.64 106.464 210.64 107.168 208.816C107.904 206.992 108.928 205.408 110.24 204.064C111.552 202.72 113.072 201.68 114.8 200.944C116.528 200.176 118.384 199.792 120.368 199.792C122.512 199.792 124.352 200.192 125.888 200.992C127.424 201.792 128.56 203.04 129.296 204.736C130.064 206.4 130.336 208.56 130.112 211.216C129.952 214.256 129.328 216.928 128.24 219.232C127.152 221.504 125.68 223.264 123.824 224.512C122 225.76 119.808 226.384 117.248 226.384ZM119.552 220.192C121.024 220.192 122.32 219.84 123.44 219.136C124.592 218.4 125.488 217.408 126.128 216.16C126.8 214.88 127.136 213.392 127.136 211.696C127.136 209.936 126.608 208.544 125.552 207.52C124.528 206.496 123.088 205.984 121.232 205.984C119.792 205.984 118.496 206.352 117.344 207.088C116.192 207.792 115.28 208.784 114.608 210.064C113.968 211.312 113.648 212.784 113.648 214.48C113.648 216.24 114.16 217.632 115.184 218.656C116.24 219.68 117.696 220.192 119.552 220.192ZM124.688 226L125.696 220.864L127.376 213.184L128.384 205.504L129.44 200.176H136.928L131.792 226H124.688ZM138.725 226L143.861 200.176H150.965L149.477 207.52L148.805 205.408C149.957 203.328 151.461 201.872 153.317 201.04C155.173 200.208 157.397 199.792 159.989 199.792L158.645 206.704C158.325 206.672 158.021 206.656 157.733 206.656C157.477 206.624 157.205 206.608 156.917 206.608C154.709 206.608 152.901 207.152 151.493 208.24C150.117 209.328 149.189 211.088 148.709 213.52L146.213 226H138.725Z" fill="#4261FF"/>
<path d="M172.068 205.408H187.668L186.276 212.512H170.676L172.068 205.408ZM170.1 218.656H187.716L186.18 226H159.252L165.972 192.4H192.276L190.788 199.744H173.844L170.1 218.656ZM202.977 226.432C201.121 226.432 199.345 225.968 197.649 225.04C195.985 224.112 194.625 222.768 193.569 221.008C192.513 219.248 191.985 217.104 191.985 214.576C191.985 212.4 192.353 210.4 193.089 208.576C193.825 206.752 194.833 205.168 196.113 203.824C197.425 202.48 198.929 201.44 200.625 200.704C202.353 199.936 204.193 199.552 206.145 199.552C208.033 199.552 209.681 199.872 211.089 200.512C212.529 201.152 213.649 202.192 214.449 203.632C215.249 205.04 215.649 206.896 215.649 209.2C215.649 211.504 215.377 213.696 214.833 215.776C214.289 217.824 213.473 219.648 212.385 221.248C211.329 222.848 210.001 224.112 208.401 225.04C206.833 225.968 205.025 226.432 202.977 226.432ZM206.145 219.088C207.393 219.088 208.465 218.784 209.361 218.176C210.289 217.568 211.009 216.72 211.521 215.632C212.065 214.544 212.337 213.28 212.337 211.84C212.337 210.336 211.905 209.136 211.041 208.24C210.177 207.312 208.977 206.848 207.441 206.848C206.257 206.848 205.185 207.168 204.225 207.808C203.297 208.416 202.561 209.264 202.017 210.352C201.505 211.44 201.249 212.704 201.249 214.144C201.249 215.648 201.681 216.848 202.545 217.744C203.409 218.64 204.609 219.088 206.145 219.088ZM209.985 226L210.897 221.632L212.577 213.04L213.777 204.448L216.609 190.384H225.729L218.625 226H209.985ZM235.676 226.432C233.564 226.432 231.724 225.984 230.156 225.088C228.62 224.16 227.532 222.8 226.892 221.008C226.252 219.216 226.188 216.992 226.7 214.336L229.58 199.984H238.7L236.012 213.472C235.66 215.136 235.756 216.416 236.3 217.312C236.876 218.208 237.884 218.656 239.324 218.656C240.86 218.656 242.14 218.192 243.164 217.264C244.22 216.304 244.94 214.832 245.324 212.848L247.916 199.984H257.036L251.852 226H243.212L244.7 218.656L245.852 220.768C244.604 222.72 243.068 224.16 241.244 225.088C239.452 225.984 237.596 226.432 235.676 226.432Z" fill="#22BDFF"/>
<path fill-rule="evenodd" clip-rule="evenodd" d="M155.5 64C63.1513 200.636 247.849 200.636 155.5 64V64Z" fill="#22BDFF"/>
<path fill-rule="evenodd" clip-rule="evenodd" d="M155.5 64C161.41 72.7434 166.17 80.9186 169.955 88.543C163.446 98.2751 160.613 160.167 141.748 159.47C145.82 147.058 144.482 80.3025 155.5 64Z" fill="white" fill-opacity="0.2"/>
<path fill-rule="evenodd" clip-rule="evenodd" d="M258 108.232C93.4953 96.5736 185.844 256.526 258 108.232V108.232Z" fill="#4161FF"/>
<path fill-rule="evenodd" clip-rule="evenodd" d="M258 108.232C214.66 197.305 164.049 175.157 166.186 145.805C208.456 175.341 255.069 109.059 255.737 108.105C256.499 108.152 257.227 108.177 258 108.232Z" fill="black" fill-opacity="0.090196"/>
<path fill-rule="evenodd" clip-rule="evenodd" d="M53 108.232C125.156 256.526 217.504 96.5736 53 108.232V108.232Z" fill="#4161FF"/>
<path fill-rule="evenodd" clip-rule="evenodd" d="M53.063 108.232C96.4036 197.305 147.014 175.157 144.877 145.805C102.607 175.341 55.994 109.059 55.3261 108.105C54.5642 108.152 53.8361 108.177 53.063 108.232Z" fill="black" fill-opacity="0.090196"/>
<path fill-rule="evenodd" clip-rule="evenodd" d="M181.315 121.99C184.329 141.45 178.816 154.52 170.366 161.208C162.887 150.546 164.477 133.901 181.315 121.99Z" fill="#318EFF"/>
<path fill-rule="evenodd" clip-rule="evenodd" d="M140.634 161.208C132.185 154.52 126.671 141.45 129.685 121.99C146.523 133.901 148.114 150.546 140.634 161.208Z" fill="#318EFF"/>
<defs>
<filter id="filter0_d_1_19" x="0" y="0" width="310" height="310" filterUnits="userSpaceOnUse" color-interpolation-filters="sRGB">
<feFlood flood-opacity="0" result="BackgroundImageFix"/>
<feColorMatrix in="SourceAlpha" type="matrix" values="0 0 0 0 0 0 0 0 0 0 0 0 0 0 0 0 0 0 127 0" result="hardAlpha"/>
<feOffset dy="4"/>
<feGaussianBlur stdDeviation="7.5"/>
<feComposite in2="hardAlpha" operator="out"/>
<feColorMatrix type="matrix" values="0 0 0 0 0 0 0 0 0 0 0 0 0 0 0 0 0 0 0.1 0"/>
<feBlend mode="normal" in2="BackgroundImageFix" result="effect1_dropShadow_1_19"/>
<feBlend mode="normal" in="SourceGraphic" in2="effect1_dropShadow_1_19" result="shape"/>
</filter>
</defs>
</svg>
